<?xml version="1.0" encoding="UTF-8"?>
<svg version="1.1" xmlns="http://www.w3.org/2000/svg" width="2486" height="1904">
<path d="M0 0 C4.01677772 0.00020699 8.03354861 -0.00534296 12.05032301 -0.01005757 C19.8951971 -0.01830317 27.74006367 -0.02110969 35.58494173 -0.02166995 C41.97903397 -0.02214835 48.37312378 -0.02421909 54.76721525 -0.02737057 C72.98365655 -0.03616318 91.20009199 -0.04079253 109.41653542 -0.0400401 C110.39505926 -0.04000014 111.37358309 -0.03996019 112.38175917 -0.03991902 C113.85138463 -0.0398577 113.85138463 -0.0398577 115.3506995 -0.03979514 C131.18218379 -0.03938982 147.01364416 -0.04893409 162.84512155 -0.06305739 C179.18708571 -0.0775183 195.52903829 -0.08432217 211.87100899 -0.08346361 C221.01074548 -0.0831348 230.1504567 -0.08579783 239.29018736 -0.09664166 C333.50268182 -0.20293088 424.43207109 3.41662841 566.81242323 81.14538372 C567.62356581 81.74600627 567.62356581 81.74600627 568.4510951 82.35876262 C576.18257604 88.12024736 583.54535404 94.24872694 590.81632948 100.57897747 C593.65228114 103.08275262 593.65228114 103.08275262 596.21476698 104.86803997 C596.74199354 105.2895634 597.2692201 105.71108684 597.81242323 106.14538372 C597.81242323 106.80538372 597.81242323 107.46538372 597.81242323 108.14538372 C598.67613539 108.521226 598.67613539 108.521226 599.55729628 108.90466106 C602.11880916 110.31395071 603.83427273 111.92447135 605.89445448 113.99694622 C606.6620912 114.76651653 607.42972792 115.53608684 608.22062635 116.32897747 C609.41075331 117.53747356 609.41075331 117.53747356 610.62492323 118.77038372 C611.40673964 119.55284465 612.18855604 120.33530559 612.99406385 121.14147747 C617.79979893 125.98334589 622.38405465 130.95752115 626.81242323 136.14538372 C627.60906385 137.06061809 628.40570448 137.97585247 629.22648573 138.91882122 C683.4944901 202.77481222 708.55241608 285.20418625 716.90361261 367.35305774 C717.43872007 372.61466933 718.00950131 377.86952412 718.62149477 383.12287509 C721.50078541 409.49101238 721.22636612 435.8953017 721.16525642 462.38775478 C721.14922014 469.62183735 721.15128433 476.85589101 721.15366562 484.08998698 C721.15757527 497.43233595 721.14770652 510.7746398 721.1296134 524.11697567 C721.11178014 537.30188142 721.10029911 550.48676832 721.09705496 563.67168605 C721.09684874 564.49561159 721.09664252 565.31953712 721.09643005 566.16843009 C721.09541486 570.35379225 721.09451078 574.53915442 721.09364942 578.72451662 C721.08737066 608.26602281 721.06722183 637.80750455 721.03874159 667.348997 C721.01112877 696.0241259 720.98990721 724.69924807 720.97721815 753.37438762 C720.97682357 754.26037306 720.97642899 755.14635849 720.97602246 756.05919197 C720.97206644 764.9577112 720.96823907 773.85623048 720.96450588 782.75474981 C720.95689999 800.87738294 720.94843623 819.00001563 720.93945265 837.12264812 C720.93904078 837.95565166 720.93862891 838.7886552 720.93820456 839.64690127 C720.91066518 895.14640567 720.86307415 950.64589619 720.81242323 1006.14538372 C719.82242323 1006.14538372 718.83242323 1006.14538372 717.81242323 1006.14538372 C717.81242323 1014.06538372 717.81242323 1021.98538372 717.81242323 1030.14538372 C716.82242323 1030.14538372 715.83242323 1030.14538372 714.81242323 1030.14538372 C714.81242323 1034.76538372 714.81242323 1039.38538372 714.81242323 1044.14538372 C714.15242323 1044.14538372 713.49242323 1044.14538372 712.81242323 1044.14538372 C712.81242323 1047.44538372 712.81242323 1050.74538372 712.81242323 1054.14538372 C711.82242323 1054.14538372 710.83242323 1054.14538372 709.81242323 1054.14538372 C709.81242323 1056.12538372 709.81242323 1058.10538372 709.81242323 1060.14538372 C709.15242323 1060.14538372 708.49242323 1060.14538372 707.81242323 1060.14538372 C707.81242323 1061.79538372 707.81242323 1063.44538372 707.81242323 1065.14538372 C707.15242323 1065.14538372 706.49242323 1065.14538372 705.81242323 1065.14538372 C705.48242323 1067.78538372 705.15242323 1070.42538372 704.81242323 1073.14538372 C704.15242323 1073.14538372 703.49242323 1073.14538372 702.81242323 1073.14538372 C702.81242323 1074.13538372 702.81242323 1075.12538372 702.81242323 1076.14538372 C702.15242323 1076.14538372 701.49242323 1076.14538372 700.81242323 1076.14538372 C700.66804823 1076.92913372 700.52367323 1077.71288372 700.37492323 1078.52038372 C699.81242323 1081.14538372 699.81242323 1081.14538372 698.81242323 1083.14538372 C698.15242323 1083.14538372 697.49242323 1083.14538372 696.81242323 1083.14538372 C696.54429823 1084.11475872 696.27617323 1085.08413372 695.99992323 1086.08288372 C695.60804823 1087.09350872 695.21617323 1088.10413372 694.81242323 1089.14538372 C693.82242323 1089.47538372 692.83242323 1089.80538372 691.81242323 1090.14538372 C691.09702678 1091.45321786 690.4358825 1092.79130811 689.81242323 1094.14538372 C688.85362289 1095.42725809 687.85248366 1096.67851301 686.81242323 1097.89538372 C686.29679823 1098.50897747 685.78117323 1099.12257122 685.24992323 1099.75475872 C683.81242323 1101.14538372 683.81242323 1101.14538372 681.81242323 1101.14538372 C681.81242323 1101.80538372 681.81242323 1102.46538372 681.81242323 1103.14538372 C681.15242323 1103.14538372 680.49242323 1103.14538372 679.81242323 1103.14538372 C679.81242323 1103.80538372 679.81242323 1104.46538372 679.81242323 1105.14538372 C678.16242323 1105.80538372 676.51242323 1106.46538372 674.81242323 1107.14538372 C674.81242323 1107.80538372 674.81242323 1108.46538372 674.81242323 1109.14538372 C637.61908252 1136.17295045 585.95624676 1136.29653968 541.88664198 1136.31335247 C539.84097221 1136.31658328 537.79530265 1136.31994855 535.74963331 1136.32343853 C531.48987752 1136.32936957 527.23014183 1136.33128484 522.97038221 1136.33068645 C518.67639379 1136.33060548 514.3825127 1136.33751269 510.08854628 1136.35119426 C402.42550925 1136.68892962 402.42550925 1136.68892962 364.81242323 1114.14538372 C364.00418104 1113.67745403 363.19593885 1113.20952434 362.36320448 1112.72741497 C358.23634662 1110.2714664 358.23634662 1110.2714664 356.81242323 1109.14538372 C356.81242323 1108.48538372 356.81242323 1107.82538372 356.81242323 1107.14538372 C355.16242323 1106.48538372 353.51242323 1105.82538372 351.81242323 1105.14538372 C351.81242323 1104.48538372 351.81242323 1103.82538372 351.81242323 1103.14538372 C351.15242323 1103.14538372 350.49242323 1103.14538372 349.81242323 1103.14538372 C349.81242323 1102.48538372 349.81242323 1101.82538372 349.81242323 1101.14538372 C348.82242323 1100.81538372 347.83242323 1100.48538372 346.81242323 1100.14538372 C344.98820448 1098.36803997 344.98820448 1098.36803997 343.12492323 1096.20788372 C342.50230604 1095.49761028 341.87968885 1094.78733684 341.23820448 1094.05553997 C339.81242323 1092.14538372 339.81242323 1092.14538372 339.81242323 1090.14538372 C338.82242323 1089.81538372 337.83242323 1089.48538372 336.81242323 1089.14538372 C335.62492323 1086.08288372 335.62492323 1086.08288372 334.81242323 1083.14538372 C334.15242323 1083.14538372 333.49242323 1083.14538372 332.81242323 1083.14538372 C331.35179473 1080.49799455 330.81242323 1079.25090037 330.81242323 1076.14538372 C330.15242323 1076.14538372 329.49242323 1076.14538372 328.81242323 1076.14538372 C328.81242323 1075.15538372 328.81242323 1074.16538372 328.81242323 1073.14538372 C328.15242323 1073.14538372 327.49242323 1073.14538372 326.81242323 1073.14538372 C326.48242323 1070.50538372 326.15242323 1067.86538372 325.81242323 1065.14538372 C325.15242323 1065.14538372 324.49242323 1065.14538372 323.81242323 1065.14538372 C323.81242323 1063.49538372 323.81242323 1061.84538372 323.81242323 1060.14538372 C323.15242323 1060.14538372 322.49242323 1060.14538372 321.81242323 1060.14538372 C321.81242323 1058.16538372 321.81242323 1056.18538372 321.81242323 1054.14538372 C320.82242323 1054.14538372 319.83242323 1054.14538372 318.81242323 1054.14538372 C318.81242323 1050.84538372 318.81242323 1047.54538372 318.81242323 1044.14538372 C318.15242323 1044.14538372 317.49242323 1044.14538372 316.81242323 1044.14538372 C316.81242323 1039.52538372 316.81242323 1034.90538372 316.81242323 1030.14538372 C315.82242323 1030.14538372 314.83242323 1030.14538372 313.81242323 1030.14538372 C313.81242323 1022.22538372 313.81242323 1014.30538372 313.81242323 1006.14538372 C312.82242323 1006.14538372 311.83242323 1006.14538372 310.81242323 1006.14538372 C310.81068698 1005.28993219 310.80895073 1004.43448067 310.80716187 1003.55310637 C310.70375733 952.66275835 310.5955677 901.77242238 310.48130629 850.88209752 C310.46753947 844.74874964 310.45381196 838.61540167 310.44010878 832.48205364 C310.43601632 830.65077273 310.43601632 830.65077273 310.43184119 828.78249625 C310.38796706 809.1080443 310.34726523 789.43358703 310.30777062 769.75912585 C310.26706454 749.51699805 310.22286858 729.27487994 310.17554468 709.03276652 C310.14653497 696.57867185 310.12013142 684.1245776 310.09724426 671.67047016 C310.08120975 663.08830144 310.06173479 654.50614448 310.03975482 645.92398896 C310.02723743 640.99928984 310.01604286 636.07459913 310.00900412 631.14988887 C309.97931078 611.10489338 309.81282247 591.07127712 309.34646559 571.0312022 C309.32610381 570.1457868 309.30574203 569.26037141 309.28476322 568.34812524 C308.34912161 528.49808675 306.9445478 486.86528127 296.81242323 448.14538372 C296.53027967 447.04033489 296.24813612 445.93528606 295.95744276 444.7967509 C289.47803435 419.75035587 280.56243937 394.97040506 264.81242323 374.14538372 C263.94230604 372.91755168 263.94230604 372.91755168 263.05461073 371.66491497 C255.27798261 361.17134774 245.02717235 353.74476456 232.81242323 349.14538372 C232.10086073 348.85147747 231.38929823 348.55757122 230.65617323 348.25475872 C223.65645188 345.59068566 216.20573993 344.97335726 208.81242323 344.14538372 C208.81242323 345.46538372 208.81242323 346.78538372 208.81242323 348.14538372 C206.50242323 348.14538372 204.19242323 348.14538372 201.81242323 348.14538372 C201.81242323 351.11538372 201.81242323 354.08538372 201.81242323 357.14538372 C200.49242323 357.14538372 199.17242323 357.14538372 197.81242323 357.14538372 C197.81318267 358.19648126 197.81394211 359.2475788 197.81472456 360.33052778 C197.8481406 406.76469006 197.87898488 453.19885315 197.89710951 499.6330241 C197.89738562 500.33859093 197.89766174 501.04415776 197.89794622 501.77110541 C197.90393527 517.11354514 197.90947517 532.455985 197.91455389 547.79842506 C197.91704805 555.32488526 197.91964123 562.85134544 197.92228651 570.37780559 C197.92254803 571.12668623 197.92280955 571.87556688 197.92307899 572.64714087 C197.93156635 596.81902982 197.94656215 620.99090928 197.96501767 645.16279251 C197.98398501 670.05086934 197.99621758 694.93894093 198.00025321 719.82702487 C198.00082932 723.36105562 198.00148059 726.89508635 198.00217772 730.42911708 C198.00231256 731.12450662 198.00244741 731.81989615 198.00258634 732.5363581 C198.00492847 743.62576932 198.01414591 754.71516413 198.0260873 765.80456872 C198.03800822 777.01640342 198.04216409 788.2282226 198.03942598 799.44006492 C198.03816246 805.48917819 198.03990339 811.53824425 198.05083418 817.58734882 C198.12332418 859.86882975 197.06891925 902.05662922 192.81242323 944.14538372 C192.72970167 944.96764446 192.64698011 945.7899052 192.56175184 946.63708293 C186.24294152 1008.98149399 175.66292822 1071.22256702 145.81242323 1127.14538372 C145.43650038 1127.85855754 145.06057753 1128.57173137 144.67326307 1129.30651653 C138.7693081 1140.45708888 132.24531885 1150.95226161 124.81242323 1161.14538372 C124.05638807 1162.18759075 124.05638807 1162.18759075 123.28507948 1163.25085247 C115.93355751 1173.31565436 107.99312252 1182.53378138 99.35929823 1191.5130595 C97.19754824 1193.79422433 95.13199877 1196.15567505 93.06242323 1198.52038372 C85.49047129 1206.97247029 76.6621004 1214.08242999 67.81242323 1221.14538372 C66.38543104 1222.29973918 66.38543104 1222.29973918 64.92961073 1223.47741497 C21.53849665 1257.82408966 -30.28069197 1277.04883098 -84.18757677 1287.14538372 C-85.42870226 1287.39046672 -85.42870226 1287.39046672 -86.69490099 1287.6405009 C-136.61112171 1297.46696329 -191.38711346 1295.41999483 -241.18757677 1286.14538372 C-242.32388536 1285.93542766 -243.46019396 1285.72547161 -244.63093615 1285.50915325 C-279.97528629 1278.8567243 -315.1144549 1268.97718429 -347.62361193 1253.37145793 C-350.50350456 1251.99430874 -353.39778774 1250.65007162 -356.29304552 1249.30553997 C-375.01551769 1240.55052958 -392.36131924 1230.49277902 -409.56257677 1219.08288372 C-410.19320024 1218.6656303 -410.82382372 1218.24837688 -411.473557 1217.81847942 C-424.2949611 1209.3111686 -436.36170188 1199.99478927 -448.18757677 1190.14538372 C-448.69256701 1189.72676067 -449.19755724 1189.30813762 -449.71785021 1188.87682903 C-457.09258284 1182.75466637 -464.22069683 1176.41958412 -471.23054552 1169.88366497 C-474.29287825 1167.03313623 -477.42662162 1164.27214218 -480.60163927 1161.54772747 C-482.20681222 1160.12837503 -483.75834798 1158.74352137 -485.18757677 1157.14538372 C-485.18757677 1156.48538372 -485.18757677 1155.82538372 -485.18757677 1155.14538372 C-486.17757677 1154.81538372 -487.16757677 1154.48538372 -488.18757677 1154.14538372 C-490.73521262 1151.6751444 -492.92660088 1148.87758504 -495.18757677 1146.14538372 C-496.1369713 1145.02583293 -496.1369713 1145.02583293 -497.10554552 1143.88366497 C-524.5370487 1110.75779786 -533.00020823 1070.68401774 -529.91023302 1028.53991497 C-529.50625672 1025.01185524 -528.93263172 1021.61710573 -528.18757677 1018.14538372 C-528.03691759 1017.43478801 -527.88625841 1016.72419231 -527.7310338 1015.9920634 C-520.90369358 984.78698677 -504.01328139 960.34565403 -481.55256701 938.22912395 C-479.48477744 936.19281732 -477.42815151 934.14573354 -475.37312365 932.09655559 C-474.03716006 930.76975415 -472.70059284 929.44356017 -471.36335802 928.11803997 C-470.45992411 927.22098087 -470.45992411 927.22098087 -469.538239 926.30579937 C-465.79246281 922.62158962 -461.93052798 919.11466883 -457.94775438 915.68784893 C-455.58105673 913.61388277 -453.38222312 911.39934483 -451.18757677 909.14538372 C-447.64525478 905.55979673 -444.01202016 902.1964671 -440.18367052 898.92272747 C-437.92625051 896.91269595 -435.81021965 894.79705418 -433.68757677 892.64538372 C-430.39354191 889.31213416 -427.01471442 886.18028085 -423.45320177 883.13757122 C-421.18379191 881.14205565 -418.9965853 879.07186007 -416.80744982 876.98913372 C-386.59428866 848.42893073 -349.79252525 834.09673744 -308.18757677 835.14538372 C-268.7144971 837.01451171 -240.44049066 852.07838481 -209.88679552 876.12194622 C-206.17344202 878.90561787 -202.80076667 881.29108929 -198.18757677 882.14538372 C-198.18757677 880.49538372 -198.18757677 878.84538372 -198.18757677 877.14538372 C-196.20757677 877.14538372 -194.22757677 877.14538372 -192.18757677 877.14538372 C-192.1385924 876.36292278 -192.08960802 875.58046184 -192.03913927 874.77428997 C-191.96437365 873.7623759 -191.88960802 872.75046184 -191.81257677 871.70788372 C-191.7429674 870.69854778 -191.67335802 869.68921184 -191.60163927 868.64928997 C-191.46499865 867.8230009 -191.32835802 866.99671184 -191.18757677 866.14538372 C-190.52757677 865.81538372 -189.86757677 865.48538372 -189.18757677 865.14538372 C-188.19155546 862.15731978 -188.06069723 860.1988153 -188.05696625 857.0791828 C-188.05328553 856.02317953 -188.04960482 854.96717626 -188.04581258 853.87917289 C-188.04683525 852.71267307 -188.04785791 851.54617325 -188.04891157 850.34432495 C-188.04464824 848.48529834 -188.04464824 848.48529834 -188.04029879 846.58871564 C-188.03337687 843.12682403 -188.03095568 839.66498064 -188.03037137 836.20308551 C-188.02864731 832.44513136 -188.02116478 828.68718812 -188.01439482 824.92924029 C-188.00331827 818.33581658 -187.99595843 811.74239674 -187.99099588 805.14896572 C-187.98360004 795.34469795 -187.97051927 785.54044362 -187.95625013 775.73618374 C-187.93241206 759.24571889 -187.91321948 742.75525165 -187.89665079 726.26477802 C-187.88022447 709.93102302 -187.86174792 693.59727247 -187.84051752 677.26352298 C-187.83919991 676.24892336 -187.83788231 675.23432373 -187.83652477 674.18897867 C-187.82982293 669.03659263 -187.8230843 663.88420664 -187.81633151 658.73182067 C-187.76853547 622.21285967 -187.72535994 585.69389452 -187.68489122 549.17492473 C-187.64555953 513.69152322 -187.60414143 478.20812515 -187.55989122 442.72472942 C-187.55852869 441.63147507 -187.55716616 440.53822072 -187.55576235 439.41183745 C-187.54207728 428.43318752 -187.52834971 417.45453764 -187.51459101 406.4758878 C-187.48656251 384.10999803 -187.4588177 361.74410791 -187.43124437 339.37821758 C-187.42997617 338.34981156 -187.42870798 337.32140553 -187.42740135 336.26183569 C-187.34270837 267.55635729 -187.26462914 198.85087106 -187.18757677 130.14538372 C-186.19757677 130.14538372 -185.20757677 130.14538372 -184.18757677 130.14538372 C-184.18757677 122.22538372 -184.18757677 114.30538372 -184.18757677 106.14538372 C-183.19757677 106.14538372 -182.20757677 106.14538372 -181.18757677 106.14538372 C-181.18757677 101.52538372 -181.18757677 96.90538372 -181.18757677 92.14538372 C-180.52757677 92.14538372 -179.86757677 92.14538372 -179.18757677 92.14538372 C-179.18757677 88.84538372 -179.18757677 85.54538372 -179.18757677 82.14538372 C-178.19757677 82.14538372 -177.20757677 82.14538372 -176.18757677 82.14538372 C-176.18757677 80.16538372 -176.18757677 78.18538372 -176.18757677 76.14538372 C-175.52757677 76.14538372 -174.86757677 76.14538372 -174.18757677 76.14538372 C-174.18757677 74.49538372 -174.18757677 72.84538372 -174.18757677 71.14538372 C-173.52757677 71.14538372 -172.86757677 71.14538372 -172.18757677 71.14538372 C-171.85757677 68.50538372 -171.52757677 65.86538372 -171.18757677 63.14538372 C-170.52757677 63.14538372 -169.86757677 63.14538372 -169.18757677 63.14538372 C-169.18757677 62.15538372 -169.18757677 61.16538372 -169.18757677 60.14538372 C-168.52757677 60.14538372 -167.86757677 60.14538372 -167.18757677 60.14538372 C-167.04320177 59.36163372 -166.89882677 58.57788372 -166.75007677 57.77038372 C-166.18757677 55.14538372 -166.18757677 55.14538372 -165.18757677 53.14538372 C-164.52757677 53.14538372 -163.86757677 53.14538372 -163.18757677 53.14538372 C-162.91945177 52.17600872 -162.65132677 51.20663372 -162.37507677 50.20788372 C-161.98320177 49.19725872 -161.59132677 48.18663372 -161.18757677 47.14538372 C-159.70257677 46.65038372 -159.70257677 46.65038372 -158.18757677 46.14538372 C-157.47218032 44.83754958 -156.81103604 43.49945933 -156.18757677 42.14538372 C-155.22877643 40.86350934 -154.2276372 39.61225442 -153.18757677 38.39538372 C-152.67195177 37.78178997 -152.15632677 37.16819622 -151.62507677 36.53600872 C-150.18757677 35.14538372 -150.18757677 35.14538372 -148.18757677 35.14538372 C-148.18757677 34.48538372 -148.18757677 33.82538372 -148.18757677 33.14538372 C-147.52757677 33.14538372 -146.86757677 33.14538372 -146.18757677 33.14538372 C-146.18757677 32.48538372 -146.18757677 31.82538372 -146.18757677 31.14538372 C-144.53757677 30.48538372 -142.88757677 29.82538372 -141.18757677 29.14538372 C-141.18757677 28.48538372 -141.18757677 27.82538372 -141.18757677 27.14538372 C-101.70268499 -1.5474018 -46.54991505 -0.01501771 0 0 Z " fill="#000000" transform="translate(1093.1875767707825,70.85461628437042)"/>
<path d="M0 0 C0.64856964 0.0873642 1.29713928 0.17472839 1.96536255 0.26473999 C56.75156751 7.73957264 108.29537051 29.51365981 151.9375 63.375 C152.75347656 64.00792969 153.56945313 64.64085937 154.41015625 65.29296875 C156.94421253 67.29137086 159.44450096 69.32560814 161.9375 71.375 C162.9378125 72.18839844 163.938125 73.00179687 164.96875 73.83984375 C179.88392762 86.16726362 194.32203582 99.88011955 205.66455078 115.61474609 C207.03317064 117.50729484 208.43593433 119.37178806 209.83984375 121.23828125 C218.04746084 132.32194713 224.65461904 144.11577465 230.9375 156.375 C231.55818359 157.57745361 231.55818359 157.57745361 232.19140625 158.80419922 C259.26853394 211.80790009 267.32274801 273.2150408 267.17800903 332.02627563 C267.17888354 334.7133405 267.1805556 337.4003944 267.18318737 340.08745706 C267.18728826 345.87793969 267.18412839 351.66838075 267.17591095 357.45885849 C267.16372676 366.06877265 267.1632498 374.6786612 267.16499493 383.28858241 C267.16760915 397.77924539 267.16099193 412.26989 267.14896011 426.76054764 C267.13709219 441.0908276 267.12942141 455.42109989 267.12725449 469.75138474 C267.12711701 470.64517752 267.12697953 471.53897031 267.12683788 472.45984773 C267.12616114 476.99968381 267.1255584 481.5395199 267.12498413 486.079356 C267.12079261 518.16537665 267.10734397 550.25138731 267.08837891 582.33740234 C267.06998553 613.49234972 267.05583034 644.64729437 267.04736328 675.80224609 C267.0469687 677.24485675 267.0469687 677.24485675 267.04656615 678.71661106 C267.04392892 688.37553728 267.04137732 698.03446351 267.03888843 707.69338977 C267.03381714 727.36658738 267.02817464 747.03978482 267.02218628 766.71298218 C267.0219117 767.61735848 267.02163712 768.52173479 267.02135422 769.45351644 C267.01291456 797.15200572 267.00205578 824.85049332 266.98880005 852.54898071 C266.98823738 853.72767251 266.98823738 853.72767251 266.98766333 854.93017626 C266.97243903 886.74511828 266.95464693 918.56005897 266.9375 950.375 C190.7075 950.375 114.4775 950.375 35.9375 950.375 C35.88851562 918.72851562 35.83953125 887.08203125 35.7890625 854.4765625 C35.75363794 834.31510167 35.71774453 814.15364328 35.6796875 793.9921875 C35.66095955 784.05860419 35.64230809 774.12502075 35.62387431 764.19143689 C35.62137487 762.84466811 35.61887268 761.49789933 35.6163677 760.15113056 C35.57552415 738.17957939 35.54127952 716.20802347 35.51000018 694.23645635 C35.47859822 672.28450168 35.43987295 650.33256822 35.39470994 628.38063753 C35.36962246 616.08914466 35.34767842 603.7976646 35.33415604 591.50615311 C38.95902414 443.19818058 38.95902414 443.19818058 -45.0625 195.375 C-46.07376953 194.26511719 -46.07376953 194.26511719 -47.10546875 193.1328125 C-72.6054192 166.2454351 -110.71413943 152.77367801 -147.0625 151.375 C-147.74602539 151.34631836 -148.42955078 151.31763672 -149.13378906 151.28808594 C-182.2520232 150.08517077 -214.82490853 157.66490025 -246.45483398 166.71411133 C-249.30672904 167.43689758 -252.15928462 167.9056031 -255.0625 168.375 C-255.06174056 169.5798589 -255.06098112 170.7847178 -255.06019866 172.02608758 C-255.0267711 225.27171726 -254.99592855 278.5173479 -254.97781372 331.76298523 C-254.97753761 332.57248764 -254.97726149 333.38199004 -254.97697701 334.21602283 C-254.97098748 351.81996919 -254.96544765 369.42391568 -254.96036934 387.02786233 C-254.95787525 395.6641641 -254.95528206 404.30046585 -254.95263672 412.93676758 C-254.9523752 413.79606156 -254.95211368 414.65535553 -254.95184424 415.54068872 C-254.94336207 443.2593456 -254.92837027 470.97799418 -254.90990556 498.69664605 C-254.89092341 527.24474809 -254.87870229 555.79284557 -254.87467002 584.34095381 C-254.87409393 588.39786212 -254.87344267 592.45477041 -254.87274551 596.5116787 C-254.87261067 597.30992802 -254.87247582 598.10817734 -254.87233689 598.93061603 C-254.86999788 611.64280719 -254.86078923 624.35498398 -254.84883593 637.06716934 C-254.8368936 649.93041495 -254.83260498 662.79364671 -254.83549725 675.65689764 C-254.83685975 682.59266134 -254.83505459 689.52838157 -254.82408905 696.46413803 C-254.78217795 724.4197634 -255.03296455 752.33816647 -255.98684692 780.2775116 C-256.02813976 781.49722451 -256.06943259 782.71693742 -256.11197673 783.97361133 C-256.8345713 804.82556448 -258.06484229 825.60598471 -260.0625 846.375 C-260.24232422 848.25735352 -260.24232422 848.25735352 -260.42578125 850.17773438 C-264.74456052 894.14860241 -271.10591718 939.97454011 -292.06396484 979.47509766 C-293.04402363 981.3398452 -293.98826568 983.21903473 -294.92578125 985.10546875 C-308.4841697 1011.99232254 -330.20815891 1037.11303789 -354.0625 1055.375 C-354.69124023 1055.85839844 -355.31998047 1056.34179688 -355.96777344 1056.83984375 C-390.55522833 1083.19532007 -430.19210509 1098.88803235 -473.0625 1105.375 C-474.49916016 1105.60147217 -474.49916016 1105.60147217 -475.96484375 1105.83251953 C-566.86743649 1119.67396228 -661.88238924 1092.72556188 -735.35229492 1038.70043945 C-745.60732559 1031.05309742 -755.55092502 1022.92930726 -765.0625 1014.375 C-766.13564453 1013.43914062 -766.13564453 1013.43914062 -767.23046875 1012.484375 C-774.61011536 1005.98354438 -781.50517759 999.02189701 -788.41992188 992.03393555 C-791.28093465 989.14443171 -794.15390894 986.2675571 -797.0546875 983.41796875 C-801.62349187 978.91551631 -805.90470819 974.25694733 -810.0625 969.375 C-810.98813536 968.30195747 -811.91392887 967.22905135 -812.83984375 966.15625 C-813.83114504 965.00035652 -814.82202955 963.84410549 -815.8125 962.6875 C-816.28469971 962.1406958 -816.75689941 961.5938916 -817.2434082 961.03051758 C-819.85487922 957.96256423 -822.10261484 954.89626034 -824.0625 951.375 C-818.51553565 945.73626602 -812.97788456 940.18873957 -806.95703125 935.05078125 C-804.197272 932.60967461 -801.65039024 929.972094 -799.06640625 927.34765625 C-796.48003849 924.80162171 -793.7471472 922.45478443 -790.99609375 920.08984375 C-789.10755403 918.41495701 -787.33094352 916.67552413 -785.5625 914.875 C-783.21216899 912.48222509 -780.798276 910.24308888 -778.25 908.0625 C-775.03916245 905.29881971 -772.03982835 902.38880404 -769.0625 899.375 C-765.49890017 895.76780873 -761.84325144 892.38022111 -757.9921875 889.0859375 C-755.92941479 887.25700137 -753.9965928 885.33919542 -752.0625 883.375 C-749.52277814 880.7957494 -746.93798686 878.35282611 -744.1875 876 C-740.99567491 873.25878551 -738.01947023 870.36814112 -735.0625 867.375 C-731.52017801 863.78941301 -727.88694339 860.42608338 -724.05859375 857.15234375 C-721.80117374 855.14231223 -719.68514287 853.02667047 -717.5625 850.875 C-714.83420593 848.10939592 -712.07733166 845.46212969 -709.125 842.9375 C-705.9521408 840.21880752 -702.99911618 837.34748325 -700.0625 834.375 C-696.52744024 830.79676394 -692.91283493 827.43045571 -689.07421875 824.18359375 C-685.89233708 821.32298945 -683.02670759 818.15600398 -680.140625 815 C-678.0625 813.375 -678.0625 813.375 -676.03515625 813.40234375 C-673.61768544 814.59432441 -672.11856148 815.99282604 -670.25 817.9375 C-669.19619141 819.03191406 -669.19619141 819.03191406 -668.12109375 820.1484375 C-665.72070707 822.74468116 -663.39190252 825.3930552 -661.078125 828.06640625 C-652.50846963 837.88165106 -643.46757446 846.95855935 -633.84375 855.73779297 C-632.20162684 857.24712382 -630.58138077 858.77569294 -628.96875 860.31640625 C-600.18143547 887.51732307 -562.55519834 906.61666415 -522.35546875 905.6171875 C-508.14831281 904.9829675 -494.84629505 899.57782654 -485.12109375 888.99609375 C-467.57027441 866.64960461 -465.8073306 835.68880458 -464.0625 808.375 C-463.97758678 807.18785054 -463.89267357 806.00070108 -463.80518723 804.7775774 C-462.66808078 787.2308879 -462.9802715 769.63940404 -463.052459 752.06639183 C-463.07137374 747.14534197 -463.08392279 742.22427627 -463.09675598 737.3032074 C-463.10220037 735.2424744 -463.10765889 733.18174144 -463.11313105 731.12100852 C-463.11588472 730.08340131 -463.1186384 729.0457941 -463.12147552 727.97674425 C-463.13028042 724.76417346 -463.13979681 721.55160547 -463.14950705 718.3390373 C-463.19627358 702.67974689 -463.22129804 687.02051389 -463.23358154 671.36116028 C-463.23450362 670.2244557 -463.2354257 669.08775113 -463.23637572 667.91660096 C-463.24480098 657.37490598 -463.25186195 646.83321021 -463.25823832 636.2915138 C-463.26268756 629.08358339 -463.26793321 621.8756539 -463.27392578 614.66772461 C-463.2749107 613.47087818 -463.27589563 612.27403176 -463.27691039 611.04091725 C-463.29417491 591.6450489 -463.35442873 572.24952867 -463.42954543 552.85380848 C-463.50580157 532.88680079 -463.5322971 512.92015488 -463.51401305 492.95300847 C-463.5043758 480.66588869 -463.53329746 468.38013068 -463.61296514 456.09325991 C-463.66395693 447.66536963 -463.66660639 439.2383033 -463.63233492 430.8103325 C-463.6140261 425.95997834 -463.61601616 421.11204841 -463.67608833 416.26197815 C-463.92245084 395.17554709 -463.66243208 379.0452785 -450.58733988 361.45826781 C-448.46652581 358.56076772 -446.7345007 355.52303231 -444.96875 352.3984375 C-443.83683458 350.51351803 -442.70150822 348.63064196 -441.5625 346.75 C-440.93851318 345.71480225 -440.31452637 344.67960449 -439.67163086 343.61303711 C-434.64923309 335.29968566 -429.55369942 327.03277161 -424.41796875 318.7890625 C-422.03981126 314.96624308 -419.69372599 311.12552201 -417.36328125 307.2734375 C-403.61940075 284.61194354 -388.83557438 262.67699595 -373.0625 241.375 C-372.57265625 240.71177734 -372.0828125 240.04855469 -371.578125 239.36523438 C-360.63199516 224.57355629 -349.48192279 209.92150904 -337.45410156 195.98876953 C-335.95103198 194.24573621 -334.45544534 192.49647243 -332.9609375 190.74609375 C-330.00232674 187.28255529 -327.03486305 183.82673998 -324.0625 180.375 C-323.42699219 179.63636719 -322.79148437 178.89773438 -322.13671875 178.13671875 C-314.24673976 169.04158783 -306.0865154 160.25853787 -297.47265625 151.84765625 C-295.03141899 149.4242639 -295.03141899 149.4242639 -292.96875 146.75390625 C-291.25510209 144.61535793 -289.60378655 142.9857375 -287.5 141.25 C-284.01962641 138.28163668 -280.7709444 135.1314717 -277.5625 131.875 C-273.22514579 127.49126879 -268.76350962 123.36398063 -264.0625 119.375 C-263.02393394 118.47358363 -261.98625043 117.57114991 -260.94921875 116.66796875 C-253.39114885 110.10556631 -245.67477018 103.79841863 -237.75195312 97.68212891 C-236.12586787 96.42402769 -234.50743345 95.1567087 -232.890625 93.88671875 C-212.7980646 78.21752053 -191.49660619 64.59568171 -169.48779297 51.79541016 C-167.4909378 50.62592119 -165.509122 49.43792588 -163.53515625 48.23046875 C-124.5159125 24.85828618 -78.63135148 9.34307419 -34.3125 0 C-33.53890137 -0.16806152 -32.76530273 -0.33612305 -31.96826172 -0.50927734 C-21.22445589 -2.65155378 -10.76917159 -1.4603336 0 0 Z " fill="#1EB2E9" transform="translate(1441.0625,183.625)"/>
<path d="M0 0 C146.19 0 292.38 0 443 0 C443 0.33 443 0.66 443 1 C442.22213135 1.1451001 441.4442627 1.2902002 440.64282227 1.43969727 C422.82354305 4.79691486 405.34896477 8.65357066 388 14 C387.01902344 14.30131836 386.03804687 14.60263672 385.02734375 14.91308594 C350.51455737 25.65570225 317.01807854 40.45046444 286 59 C285.10200684 59.53625 284.20401367 60.0725 283.27880859 60.625 C264.79459006 71.7308818 247.08352774 83.84644371 230 97 C229.39849121 97.46116211 228.79698242 97.92232422 228.17724609 98.39746094 C219.7093621 104.90482311 211.52841569 111.70410865 203.47460938 118.71630859 C202.24146326 119.78979904 201.00405613 120.85839218 199.765625 121.92578125 C190.50779518 129.94030748 181.58343494 138.26829075 173 147 C169.87859736 150.13265094 166.74120352 153.24893607 163.6015625 156.36328125 C161.94264302 158.01295516 160.28379068 159.66269658 158.625 161.3125 C157.8 162.12912109 156.975 162.94574219 156.125 163.78710938 C151.20062972 168.6919385 146.49954075 173.70375286 142 179 C141.03794357 180.11734523 140.07571137 181.23453914 139.11328125 182.3515625 C137.66502558 184.04255542 136.2184831 185.73500424 134.77197266 187.42749023 C132.16168113 190.48031966 129.54569426 193.52751553 126.91015625 196.55859375 C121.28318733 203.04382209 115.8688301 209.61994764 110.6875 216.46875 C108.71522087 219.0745491 106.70982576 221.65159675 104.6875 224.21875 C97.31022692 233.59156523 90.25421182 243.11849237 83.45458984 252.91748047 C82.02246315 254.96783977 80.57179244 257.00349998 79.11328125 259.03515625 C65.51477542 278.00737555 53.18171521 297.77664078 41.02490234 317.69287109 C39.00248388 320.99594326 36.96656147 324.29027671 34.92578125 327.58203125 C23.21227654 346.48890323 11.96826998 365.65224426 1 385 C0.67 385 0.34 385 0 385 C0 257.95 0 130.9 0 0 Z " fill="#CD0404" transform="translate(979,181)"/>
<path d="M0 0 C18.81 0 37.62 0 57 0 C57 101.97 57 203.94 57 309 C38.19 309 19.38 309 0 309 C-0.33 302.07 -0.66 295.14 -1 288 C-2.98 289.629375 -4.96 291.25875 -7 292.9375 C-29.82142453 311.06111145 -54.51402916 316.34672527 -83.46337891 313.78173828 C-110.18299539 310.27782914 -134.23963197 293.36165183 -150.7578125 272.62109375 C-167.36471676 250.80522065 -174.42896383 225.02284023 -174.3125 197.8125 C-174.31067719 197.13468475 -174.30885437 196.45686951 -174.30697632 195.7585144 C-174.25808469 184.92925797 -173.6754912 174.51762978 -171 164 C-170.75056641 163.00371582 -170.75056641 163.00371582 -170.49609375 161.98730469 C-165.21471126 141.69310344 -155.37365658 125.21021861 -141 110 C-140.34128906 109.2884375 -139.68257812 108.576875 -139.00390625 107.84375 C-121.5387066 89.57030168 -96.7356757 80.47673675 -71.83325195 79.71679688 C-46.68260752 79.3734043 -24.10257701 87.73376269 -5 104 C-3.35 105.32 -1.7 106.64 0 108 C0 72.36 0 36.72 0 0 Z M-101 150 C-114.167699 165.97325851 -119.4638148 184.66144695 -117.60571289 205.12036133 C-115.45645823 223.79499627 -107.31165235 238.85677982 -93 251 C-86.50451736 255.54600828 -79.71191234 259.07572245 -72 261 C-71.278125 261.18304687 -70.55625 261.36609375 -69.8125 261.5546875 C-53.86493984 264.07971786 -37.70685114 261.72415364 -24 253 C-8.87866233 241.62045766 -0.4083976 226.7141726 2.49609375 208.078125 C4.9777454 189.64299849 1.68955342 170.97770589 -9.25 155.75 C-20.53604163 141.53588845 -34.01219764 134.17262901 -52 132 C-70.54980828 130.35164407 -87.87370229 136.85402269 -101 150 Z " fill="#3D98D4" transform="translate(662,1514)"/>
<path d="M0 0 C18.48 0 36.96 0 56 0 C56 101.97 56 203.94 56 309 C37.52 309 19.04 309 0 309 C-0.33 301.74 -0.66 294.48 -1 287 C-2.19625 288.134375 -3.3925 289.26875 -4.625 290.4375 C-26.82797181 310.12692783 -52.95583493 315.52215065 -82 314 C-109.31270409 311.18903735 -133.64643685 294.39755047 -150.72949219 273.60107422 C-172.00330415 246.79214669 -178.13735114 212.08552424 -174.50390625 178.60546875 C-172.26475677 161.88356119 -167.21547298 146.70545188 -159 132 C-158.45601562 131.01386719 -157.91203125 130.02773437 -157.3515625 129.01171875 C-144.00251885 106.5136964 -121.33486243 90.10702305 -96.44140625 82.84765625 C-70.40667986 76.43501649 -44.247845 80.05054049 -20.8125 92.6875 C-14 97 -14 97 -1 108 C-0.505 54.54 -0.505 54.54 0 0 Z M-104.8828125 154.0703125 C-117.79746971 170.23053801 -119.52826369 189.08416551 -118 209 C-115.8136657 225.07251163 -107.3388192 239.56502205 -95 250 C-80.49827226 260.71768315 -64.55936549 264.13451032 -46.81103516 261.69970703 C-30.75632247 258.68536849 -18.12842355 249.3434715 -8.52734375 236.30859375 C2.35755327 219.85597446 4.16859219 199.5084221 1 180.375 C-2.82472216 163.6999263 -12.04248698 150.46805292 -26.11328125 140.75390625 C-53.20097208 124.29602644 -84.35201607 131.49495543 -104.8828125 154.0703125 Z " fill="#0BC2F6" transform="translate(2430,1514)"/>
<path d="M0 0 C0.99 0.99 1.98 1.98 3 3 C3.33 -4.26 3.66 -11.52 4 -19 C22.81 -19 41.62 -19 61 -19 C61 54.59 61 128.18 61 204 C42.19 204 23.38 204 4 204 C3.67 196.74 3.34 189.48 3 182 C1.618125 183.32 0.23625 184.64 -1.1875 186 C-18.73277894 201.76101329 -40.41031279 209.43335945 -63.75 209.3125 C-64.89452637 209.30686035 -66.03905273 209.3012207 -67.21826172 209.29541016 C-94.58075677 208.90379729 -118.30929596 197.29010321 -137.875 178.4375 C-155.64024017 159.64562535 -166.86375705 136.63696272 -170 111 C-170.11085937 110.12472656 -170.22171875 109.24945312 -170.3359375 108.34765625 C-173.72192034 77.18746278 -167.89870247 42.00043053 -148.125 16.8125 C-146.7629375 15.19733393 -145.38779743 13.59310828 -144 12 C-143.31164062 11.17886719 -142.62328125 10.35773438 -141.9140625 9.51171875 C-126.47679114 -8.40554746 -106.39043859 -20.08642467 -83 -24 C-82.03707031 -24.16628906 -82.03707031 -24.16628906 -81.0546875 -24.3359375 C-51.0150028 -28.56205284 -23.10509857 -19.26547578 0 0 Z M-100 48 C-112.13533518 63.39224499 -115.32085907 81.92798041 -114 101 C-111.70595778 118.65337178 -104.10264501 133.80124803 -90.29296875 145.2578125 C-76.31778196 155.87609752 -61.16853862 158.44916153 -44 157 C-28.77358213 154.89201631 -15.68167212 146.1084413 -6.3125 134.3125 C-2.11546021 128.51177203 0.717123 122.76805887 3 116 C3.31839844 115.14921875 3.63679688 114.2984375 3.96484375 113.421875 C9.29845379 96.60994289 7.3593903 75.55414815 -0.125 59.8125 C-3.57644322 53.27292337 -7.71595856 48.13649404 -13 43 C-13.93779297 42.03126953 -13.93779297 42.03126953 -14.89453125 41.04296875 C-25.17333371 31.11039963 -39.99795017 27.07128047 -54 26.625 C-72.45083827 27.23676519 -87.71974189 34.51364511 -100 48 Z " fill="#4392CF" transform="translate(382,1619)"/>
<path d="M0 0 C2.325443 1.964964 4.60435619 3.98442232 6.89208984 5.99316406 C7.22208984 -0.93683594 7.55208984 -7.86683594 7.89208984 -15.00683594 C26.70208984 -15.00683594 45.51208984 -15.00683594 64.89208984 -15.00683594 C64.89208984 58.58316406 64.89208984 132.17316406 64.89208984 207.99316406 C46.08208984 207.99316406 27.27208984 207.99316406 7.89208984 207.99316406 C7.56208984 201.06316406 7.23208984 194.13316406 6.89208984 186.99316406 C4.87083984 188.64316406 2.84958984 190.29316406 0.76708984 191.99316406 C-21.85199571 209.9299633 -47.20410251 215.77008231 -75.79980469 212.70458984 C-103.29131737 208.60096794 -127.91266197 191.46315619 -144.29931641 169.38818359 C-164.49671685 140.85018998 -170.26636843 105.98179917 -164.92041016 71.68066406 C-159.68393938 42.17607794 -144.77957361 16.62460549 -121.10791016 -2.00683594 C-84.6298717 -27.14525945 -35.11298515 -28.47943956 0 0 Z M-92.10791016 48.99316406 C-92.74470703 49.60804687 -93.38150391 50.22292969 -94.03759766 50.85644531 C-105.53946089 62.79282337 -109.70418918 79.15178873 -109.54541016 95.30566406 C-109.53783691 96.39580811 -109.53026367 97.48595215 -109.52246094 98.60913086 C-109.34597169 107.28995439 -108.27113847 114.84214942 -105.10791016 122.99316406 C-104.70701172 124.03214844 -104.30611328 125.07113281 -103.89306641 126.14160156 C-97.55728807 140.42924084 -85.16389313 151.58050509 -71.07666016 157.95019531 C-55.39055609 163.46097135 -37.40561942 162.64392712 -22.31103516 155.70800781 C-6.68357743 146.99642812 3.78487061 133.29013543 8.64208984 116.24316406 C13.48601901 97.88129305 11.69697298 77.86919008 2.89208984 60.99316406 C-5.54060344 47.13945368 -17.08389107 37.71016006 -32.65869141 32.89550781 C-55.02038183 27.54760632 -75.89195395 32.57945229 -92.10791016 48.99316406 Z " fill="#28AAE2" transform="translate(1525.10791015625,1615.0068359375)"/>
<path d="M0 0 C2.536875 2.2275 2.536875 2.2275 5.125 4.5 C5.455 -2.43 5.785 -9.36 6.125 -16.5 C24.935 -16.5 43.745 -16.5 63.125 -16.5 C63.125 57.09 63.125 130.68 63.125 206.5 C44.645 206.5 26.165 206.5 7.125 206.5 C5.54096476 204.91596476 5.90525065 203.2228362 5.80859375 201.02734375 C5.76669922 200.12822266 5.72480469 199.22910156 5.68164062 198.30273438 C5.64232422 197.35720703 5.60300781 196.41167969 5.5625 195.4375 C5.51931641 194.48810547 5.47613281 193.53871094 5.43164062 192.56054688 C5.32520724 190.20718647 5.22318992 187.85371646 5.125 185.5 C4.48175781 186.056875 3.83851563 186.61375 3.17578125 187.1875 C-20.29398085 207.00789824 -44.62272792 213.1417028 -74.875 211.5 C-98.77665528 208.99310446 -119.25861327 196.20672386 -135.875 179.5 C-136.69871094 178.67628906 -137.52242187 177.85257813 -138.37109375 177.00390625 C-151.62516968 163.01476892 -160.58172853 145.20355767 -164.875 126.5 C-165.1740625 125.21480469 -165.473125 123.92960937 -165.78125 122.60546875 C-172.45188712 90.7529889 -167.53900507 57.79476189 -151.875 29.5 C-151.33101562 28.51257812 -150.78703125 27.52515625 -150.2265625 26.5078125 C-136.86127238 4.01500718 -114.21817436 -12.39055305 -89.31640625 -19.65234375 C-58.07237342 -27.34809304 -24.71050946 -20.88000495 0 0 Z M-93.875 47.5 C-94.514375 48.11617187 -95.15375 48.73234375 -95.8125 49.3671875 C-108.5834141 62.65121869 -111.37291827 79.86566338 -111.29931641 97.54101562 C-110.85404493 116.60700251 -103.6163464 132.58868237 -89.875 145.80859375 C-75.67787104 157.81515007 -59.91057991 160.81880012 -41.875 159.5 C-25.71600831 157.28323 -13.29407023 148.50475705 -3.0625 136.125 C8.59756287 120.32218538 10.61208897 100.53446944 8.734375 81.55078125 C5.98084526 64.94134868 -2.32132346 50.62161421 -15.671875 40.34765625 C-40.79763961 23.56165814 -72.5282412 26.22535863 -93.875 47.5 Z " fill="#1BB4EB" transform="translate(1928.875,1616.5)"/>
<path d="M0 0 C16.48570707 12.88010995 23.67256709 30.13625468 26.55638123 50.60691833 C27.29865846 57.47963374 27.15858646 64.38245883 27.14086914 71.28540039 C27.14058665 72.83350625 27.14074621 74.38161224 27.14131165 75.92971802 C27.14159722 80.10881574 27.13573941 84.28788444 27.12873769 88.46697545 C27.12246407 92.84317072 27.12189719 97.21936673 27.12071228 101.5955658 C27.11761075 109.871984 27.1094133 118.14838892 27.09936279 126.42480129 C27.08816499 135.85167283 27.08268198 145.27854502 27.07766736 154.70542157 C27.06722966 174.0874776 27.04889889 193.46951542 27.02734375 212.8515625 C8.54734375 212.8515625 -9.93265625 212.8515625 -28.97265625 212.8515625 C-29.03324219 205.66890625 -29.09382812 198.48625 -29.15625 191.0859375 C-29.19685222 186.47395386 -29.23767959 181.86197432 -29.27929688 177.25 C-29.34500653 169.96583693 -29.40998365 162.68167367 -29.4699707 155.39746094 C-25.04357714 96.16797307 -25.04357714 96.16797307 -44.71484375 44.1328125 C-52.00464 37.96219659 -60.62383853 36.51104265 -69.97265625 36.8515625 C-82.01943168 38.12523039 -90.83178293 42.94021367 -98.97265625 51.8515625 C-101.23707274 54.72600499 -103.16387259 57.67335272 -104.97265625 60.8515625 C-105.35035156 61.49738281 -105.72804688 62.14320312 -106.1171875 62.80859375 C-111.7378879 73.14478813 -112.92392533 84.7292643 -113.51538086 96.28637695 C-113.57811266 97.50574054 -113.57811266 97.50574054 -113.64211178 98.74973774 C-114.1637728 109.79181812 -114.2063159 120.84229462 -114.2890625 131.89453125 C-114.30969159 134.24392512 -114.33068933 136.59331578 -114.35203552 138.94270325 C-114.40664257 145.05969606 -114.45631653 151.17671885 -114.50488281 157.29376221 C-114.56449618 164.6688736 -114.63037875 172.04393146 -114.6951828 179.41899872 C-114.79241747 190.56315334 -114.8818014 201.70734584 -114.97265625 212.8515625 C-133.45265625 212.8515625 -151.93265625 212.8515625 -170.97265625 212.8515625 C-170.97265625 139.2615625 -170.97265625 65.6715625 -170.97265625 -10.1484375 C-152.49265625 -10.1484375 -134.01265625 -10.1484375 -114.97265625 -10.1484375 C-114.47765625 0.2465625 -114.47765625 0.2465625 -113.97265625 10.8515625 C-112.46703125 9.5521875 -110.96140625 8.2528125 -109.41015625 6.9140625 C-77.21493071 -19.36353161 -34.66047328 -25.05027635 0 0 Z " fill="#349FDA" transform="translate(1045.97265625,1610.1484375)"/>
<path d="M0 0 C19.47 0 38.94 0 59 0 C67.41283934 20.27709994 75.82212402 40.55556422 84.20153809 60.84649658 C85.37765938 63.69393847 86.55449013 66.5410863 87.73144531 69.38818359 C91.50233844 78.51272777 95.26542515 87.64033377 99.00762939 96.77668762 C100.7659169 101.06820141 102.52784619 105.35821551 104.2901001 109.64810181 C105.13401875 111.70543437 105.97612017 113.76351337 106.81634521 115.82235718 C107.9785547 118.66988978 109.14680533 121.51487207 110.31640625 124.359375 C110.83378609 125.63398338 110.83378609 125.63398338 111.36161804 126.93434143 C111.84112663 128.09557777 111.84112663 128.09557777 112.33032227 129.28027344 C112.60610611 129.95427185 112.88188995 130.62827026 113.16603088 131.32269287 C113.9891166 133.20134924 113.9891166 133.20134924 116 135 C124.56068046 116.93273569 133.03648079 98.8325954 141.27929688 80.61791992 C141.90230008 79.24135393 142.52534725 77.86480784 143.1484375 76.48828125 C143.45904114 75.80205185 143.76964478 75.11582245 144.08966064 74.40879822 C147.87827497 66.04782926 151.72290019 57.71263937 155.5625 49.375 C163.12312413 32.95276745 170.57769498 16.48533011 178 0 C197.47 0 216.94 0 237 0 C234.11839818 6.91584436 231.26435819 13.76540024 228.1015625 20.54296875 C227.5744014 21.68062431 227.5744014 21.68062431 227.03659058 22.84126282 C226.28844233 24.45548658 225.53933161 26.06926457 224.78930664 27.68261719 C222.77364783 32.0190943 220.76584333 36.35920543 218.7578125 40.69921875 C218.3523822 41.57516693 217.9469519 42.45111511 217.52923584 43.35360718 C213.81497203 51.38534022 210.15073272 59.43923882 206.5 67.5 C200.67325111 80.3602733 194.77078354 93.1844655 188.84423828 105.99902344 C183.68902567 117.14790763 178.56980617 128.3120271 173.5 139.5 C168.05136432 151.52396824 162.54120667 163.5184193 157 175.5 C151.43949168 187.52388836 145.90796271 199.55986402 140.4375 211.625 C134.47913172 224.76588686 128.46975623 237.88268138 122.43896484 250.99047852 C118.762258 258.9827983 115.09227613 266.97809252 111.4375 274.98046875 C111.06761459 275.79030212 110.69772919 276.6001355 110.31663513 277.43450928 C108.54337364 281.31764092 106.77120413 285.20126745 105.00024414 289.08544922 C104.36606127 290.47494087 103.731866 291.86442686 103.09765625 293.25390625 C102.81200806 293.88129196 102.52635986 294.50867767 102.23205566 295.15507507 C100.87182856 298.13377775 99.46500401 301.06999198 98 304 C78.86 304 59.72 304 40 304 C40.90863509 299.45682456 42.08969746 296.36593237 44.0703125 292.234375 C44.38324753 291.57651505 44.69618256 290.91865509 45.01860046 290.24085999 C45.69535964 288.8190262 46.37451772 287.39833227 47.05581665 285.97866821 C48.88925641 282.15693931 50.70416812 278.32643437 52.51953125 274.49609375 C52.89327377 273.70833054 53.2670163 272.92056732 53.65208435 272.1089325 C57.78956308 263.36795705 61.77422191 254.55898244 65.74520874 245.74142456 C68.8746231 238.79520823 72.0304635 231.87374273 75.3828125 225.03125 C75.90125732 223.97188232 76.41970215 222.91251465 76.95385742 221.82104492 C77.90932753 219.8835333 78.87487957 217.9509445 79.8527832 216.0246582 C80.27132568 215.17734131 80.68986816 214.33002441 81.12109375 213.45703125 C81.4864624 212.73491455 81.85183105 212.01279785 82.22827148 211.26879883 C84.31122451 205.14514099 82.27184251 200.42825427 79.84375 194.81640625 C79.51011948 194.02140213 79.17648895 193.22639801 78.83274841 192.40730286 C77.73136254 189.78823426 76.6155229 187.1755746 75.5 184.5625 C74.72216444 182.7181265 73.94557166 180.87322843 73.17016602 179.02783203 C71.56896278 175.21806195 69.96364946 171.41006308 68.35595703 167.60302734 C65.15762477 160.01385553 62.03372913 152.394523 58.91732788 144.77142334 C57.9282927 142.35248116 56.93766242 139.93419815 55.9465332 137.51611328 C54.62079551 134.28160136 53.29547601 131.04691892 51.97070312 127.81201172 C48.71133282 119.85314513 45.45025997 111.89497758 42.1875 103.9375 C41.86257568 103.1448877 41.53765137 102.35227539 41.20288086 101.53564453 C36.04329893 88.95160871 30.8523708 76.38070661 25.65289307 63.81311035 C19.16217218 48.1223394 12.7005571 32.42037985 6.3125 16.6875 C5.98595428 15.88479675 5.65940857 15.08209351 5.32296753 14.25506592 C4.41780382 12.02889542 3.51506819 9.80175889 2.61328125 7.57421875 C2.34554901 6.9162178 2.07781677 6.25821686 1.80197144 5.58027649 C0 1.11523696 0 1.11523696 0 0 Z " fill="#2FA4DD" transform="translate(1101,1600)"/>
<path d="M0 0 C40.92 0 81.84 0 124 0 C121.29271392 2.70728608 118.90150696 2.91364147 115.1875 3.8125 C96.23339232 8.64567278 79.45206576 17.12311808 64 29 C63.12627337 29.54583709 62.25254675 30.09167418 61.35234356 30.65405178 C58.66622416 33.3328684 58.4044602 34.85333385 58.33774453 38.58384901 C58.34978203 39.32575419 58.36181953 40.06765936 58.3742218 40.83204651 C58.36380498 42.02375415 58.36380498 42.02375415 58.35317773 43.2395367 C58.33589493 45.90569985 58.35423496 48.57043173 58.37231445 51.23657227 C58.36713667 53.14720355 58.35973749 55.05782992 58.35028076 56.96844482 C58.33469316 61.08768781 58.33490764 65.20652395 58.34728432 69.32577705 C58.36682685 75.85500121 58.35162264 82.38386432 58.33183289 88.91307068 C58.30464713 99.26013712 58.30119583 109.60705695 58.30760592 119.95415205 C58.31851051 138.4279678 58.29372521 156.90173699 58.25385827 175.37550777 C58.24087578 181.84816361 58.23947678 188.32068441 58.2479912 194.79334652 C58.25165349 198.84992463 58.24727253 202.90646928 58.2411499 206.96304321 C58.2400774 208.82402105 58.24235 210.68500482 58.2484951 212.54597282 C58.32947926 238.34280155 57.54995136 268.10738549 39 288 C38.39542969 288.69480469 37.79085937 289.38960937 37.16796875 290.10546875 C26.12150568 302.12867171 10.12120441 309.03865484 -6.0456543 310.22314453 C-36.2459763 311.28619587 -62.17616705 304.78308042 -85 284 C-87.55620625 281.59750924 -90.06859202 279.15450912 -92.5625 276.6875 C-93.47467285 275.7893457 -93.47467285 275.7893457 -94.40527344 274.87304688 C-94.97407227 274.30005859 -95.54287109 273.72707031 -96.12890625 273.13671875 C-96.63494385 272.62842529 -97.14098145 272.12013184 -97.66235352 271.59643555 C-99.13279657 269.84151182 -100.0547402 268.07810908 -101 266 C-87.13887086 251.96365996 -87.13887086 251.96365996 -80.921875 246.703125 C-78.51026068 244.56600337 -76.26460743 242.29205721 -74 240 C-64.54608644 230.47325197 -64.54608644 230.47325197 -61 228 C-58 228 -58 228 -55.21484375 230.59765625 C-54.11785907 231.74829596 -53.02567998 232.90352999 -51.9375 234.0625 C-42.43275799 243.83295177 -32.34776993 251.97931681 -18.125 252.4375 C-13.06342408 252.23561378 -10.28869756 250.97766943 -6.4765625 247.68359375 C-4.69160644 245.64836608 -4.12457141 243.96967026 -3.375 241.375 C-3.13523437 240.57835937 -2.89546875 239.78171875 -2.6484375 238.9609375 C-1.08070612 231.80226047 -0.85011761 224.60401165 -0.84178162 217.2999115 C-0.83684364 216.36525529 -0.83190566 215.43059908 -0.82681805 214.46761996 C-0.81154904 211.35854192 -0.80311138 208.24948436 -0.79467773 205.14038086 C-0.78509087 202.90262677 -0.77508032 200.66487447 -0.76467896 198.42712402 C-0.73771147 192.36794429 -0.71665787 186.30875684 -0.69667697 180.24955058 C-0.67476696 173.91143442 -0.64740286 167.57334186 -0.62062073 161.23524475 C-0.57642315 150.60223375 -0.5355766 139.96921522 -0.49731445 129.33618164 C-0.45790762 118.38760431 -0.41645807 107.43903781 -0.37231445 96.49047852 C-0.36956495 95.80791731 -0.36681544 95.1253561 -0.36398262 94.42211121 C-0.34004553 88.48414199 -0.31595442 82.54617338 -0.29184818 76.60820484 C-0.1883795 51.0721575 -0.09501987 25.53608341 0 0 Z " fill="#498ECB" transform="translate(101,1520)"/>
<path d="M0 0 C18.81 0 37.62 0 57 0 C57 27.39 57 54.78 57 83 C67.89 83 78.78 83 90 83 C90 99.17 90 115.34 90 132 C79.11 132 68.22 132 57 132 C57 189.42 57 246.84 57 306 C38.19 306 19.38 306 0 306 C0 248.58 0 191.16 0 132 C-9.24 132 -18.48 132 -28 132 C-28 115.83 -28 99.66 -28 83 C-18.76 83 -9.52 83 0 83 C0 55.61 0 28.22 0 0 Z " fill="#21AFE7" transform="translate(1652,1517)"/>
<path d="M0 0 C18.81 0 37.62 0 57 0 C57 73.59 57 147.18 57 223 C38.19 223 19.38 223 0 223 C0 149.41 0 75.82 0 0 Z " fill="#399CD7" transform="translate(768,1600)"/>
<path d="M0 0 C18.48 0 36.96 0 56 0 C56 73.59 56 147.18 56 223 C37.52 223 19.04 223 0 223 C0 149.41 0 75.82 0 0 Z " fill="#11BCF2" transform="translate(2159,1600)"/>
<path d="M0 0 C40.92 0 81.84 0 124 0 C121.29271392 2.70728608 118.90150696 2.91364147 115.1875 3.8125 C96.24826515 8.6418803 79.42405771 17.1079833 64 29 C63.09507812 29.69222656 62.19015625 30.38445312 61.2578125 31.09765625 C58.80009416 33.02325177 56.39165057 34.99307597 54 37 C53.19175781 37.67289063 52.38351563 38.34578125 51.55078125 39.0390625 C33.23696326 54.8516212 19.78287514 76.14871671 7.40185547 96.67724609 C6.00424289 98.99296989 4.60528177 101.30744416 3.19140625 103.61328125 C2.59307983 104.59421753 2.59307983 104.59421753 1.98266602 105.5949707 C1.65838623 106.05863037 1.33410645 106.52229004 1 107 C0.67 107 0.34 107 0 107 C0 71.69 0 36.38 0 0 Z " fill="#CC0505" transform="translate(101,1520)"/>
<path d="M0 0 C7.02086372 5.44641754 12.42580204 13.11134685 14 22 C14.71397418 34.56319952 14.11007218 44.0241025 5.8203125 53.99609375 C-0.39036336 60.83316825 -8.01070646 65.63743508 -17.35546875 66.203125 C-30.27681454 66.36118428 -38.42101223 64.19230472 -47.9140625 55.18359375 C-55.33077855 47.37237152 -58.36800978 37.83555944 -58.14453125 27.12890625 C-57.44691219 16.85316597 -53.19876519 8.73099016 -45.75 1.625 C-32.30988525 -9.5939828 -14.33164708 -9.42439256 0 0 Z " fill="#11BCF1" transform="translate(2209,1515)"/>
<path d="M0 0 C8.40423554 8.00261721 12.19818389 16.82504688 12.5625 28.25 C12.40325745 36.65800645 10.43465093 43.66545174 5.25 50.375 C4.198125 51.86 4.198125 51.86 3.125 53.375 C-2.37530167 59.84594314 -11.08613464 63.9026469 -19.4140625 64.74609375 C-30.1222926 64.92562029 -37.94086893 63.21121863 -47.0625 57.1875 C-55.46895851 48.39004342 -59.79365046 40.17241223 -60.1875 28 C-59.95198459 17.77043916 -57.06146411 8.75116733 -49.75 1.375 C-34.96457831 -10.49650647 -15.15707691 -12.52546422 0 0 Z " fill="#399BD6" transform="translate(820.75,1516.625)"/>
<path d="M0 0 C6.40187831 6.15512497 9.59439077 12.17589763 11 21 C11.18846268 31.27121633 8.83025327 39.10828037 2.6875 47.3125 C-4.89199461 54.89199461 -13.0909559 57.48326851 -23.74194336 57.50415039 C-32.52728862 57.24620069 -39.576311 53.53262096 -46 47.625 C-53.20078836 39.7041328 -54.48098921 31.24448328 -54.27734375 20.8359375 C-53.67601783 12.51900721 -50.28298129 5.51446212 -44 0 C-30.2137256 -10.32777996 -13.74168884 -10.59255181 0 0 Z " fill="#15B9EF" transform="translate(2100,1771)"/>
</svg>
